<svg viewBox="0 0 638 575" fill="none" xmlns="http://www.w3.org/2000/svg">
<line x1="29" y1="385" x2="132" y2="385" stroke="#FFDD00" stroke-width="8"/>
<line x1="25" y1="389" x2="25" y2="355" stroke="#FFDD00" stroke-width="8"/>
<rect x="132" y="385" width="494" height="90" stroke="#FFDD00" stroke-width="8"/>
<text fill="#FFDD00" stroke="#1E1E1E" stroke-width="2" xml:space="preserve" style="white-space: pre" font-family="CozetteVector" font-size="18" letter-spacing="0em"><tspan x="3" y="245.747">These are&#x2028;</tspan><tspan x="3" y="268.747">non-</tspan><tspan x="3" y="291.747">refundable  </tspan><tspan x="3" y="314.747">annual &#x2028;</tspan><tspan x="3" y="337.747">contracts</tspan></text>
<text fill="#FFDD00" xml:space="preserve" style="white-space: pre" font-family="CozetteVector" font-size="18" letter-spacing="0em"><tspan x="3" y="245.747">These are</tspan><tspan x="3" y="268.747">non-</tspan><tspan x="3" y="291.747">refundable  </tspan><tspan x="3" y="314.747">annual</tspan><tspan x="3" y="337.747">contracts</tspan></text>
<text fill="#FF9F46" xml:space="preserve" style="white-space: pre" font-family="CozetteVector" font-size="18" letter-spacing="0em"><tspan x="3" y="428.747">Monthly </tspan><tspan x="3" y="451.747">contract </tspan><tspan x="3" y="474.747">is hidden </tspan><tspan x="3" y="497.747">behind </tspan><tspan x="3" y="520.747">this drop </tspan><tspan x="3" y="543.747">down menu</tspan></text>
<line x1="141" y1="450" x2="93" y2="450" stroke="#FF9900" stroke-width="6"/>
<line x1="145.849" y1="452.092" x2="128.879" y2="435.121" stroke="#FF9900" stroke-width="6"/>
<line y1="-3" x2="18.3848" y2="-3" transform="matrix(-0.707107 0.707107 0.707107 0.707107 144 454)" stroke="#FF9900" stroke-width="6"/>
</svg>
